<?xml version="1.0" standalone="no"?>
<!DOCTYPE svg PUBLIC "-//W3C//DTD SVG 20010904//EN"
 "http://www.w3.org/TR/2001/REC-SVG-20010904/DTD/svg10.dtd">
<svg version="1.0" xmlns="http://www.w3.org/2000/svg"
 width="600.000000pt" height="360.000000pt" viewBox="0 0 600.000000 360.000000"
 preserveAspectRatio="xMidYMid meet">

<g transform="translate(0.000000,360.000000) scale(0.100000,-0.100000)"
fill="currentColor" stroke="none">
<path d="M2500 2849 c-266 -187 -485 -341 -487 -343 -2 -1 220 -159 492 -350
l495 -347 72 51 c40 29 141 99 223 157 762 533 697 484 672 502 -108 83 -958
671 -969 671 -7 0 -231 -154 -498 -341z m605 -154 c50 -35 127 -90 173 -121
45 -31 85 -60 87 -64 6 -9 -348 -260 -366 -260 -12 0 -320 210 -352 240 -18
17 -12 22 160 144 98 69 185 125 193 125 8 0 56 -29 105 -64z"/>
<path d="M360 2384 c156 -158 492 -489 504 -496 8 -5 257 -7 553 -6 l538 3 3
278 2 277 -827 0 -827 0 54 -56z"/>
<path d="M2010 2013 l0 -428 305 -202 305 -202 0 -46 c0 -25 -2 -45 -5 -45 -3
0 -139 92 -301 205 -162 113 -297 205 -300 205 -2 0 -4 -96 -4 -212 l0 -213
233 -162 c127 -89 342 -239 477 -332 134 -94 247 -171 250 -171 3 0 3 192 0
427 l-5 428 -302 200 -302 200 0 48 c-1 26 1 47 3 47 3 0 139 -94 303 -209
164 -115 300 -208 303 -206 3 2 3 99 0 216 l-5 213 -475 333 c-261 183 -476
333 -477 333 -2 0 -3 -192 -3 -427z"/>
<path d="M3810 2318 l-173 -123 -62 -162 c-34 -90 -64 -165 -66 -168 -3 -3
-32 29 -65 70 -32 41 -62 74 -66 75 -9 0 -304 -205 -335 -233 l-23 -20 0 -675
c0 -589 2 -673 15 -668 8 3 89 57 180 121 l165 116 2 461 3 461 59 -72 c32
-39 62 -68 66 -64 4 4 31 71 60 148 29 77 56 147 61 155 5 8 9 -188 9 -442 0
-252 3 -458 6 -458 3 0 82 53 175 118 l168 117 1 683 c0 375 -2 682 -4 682 -2
0 -81 -55 -176 -122z"/>
<path d="M4042 2163 l3 -278 545 -3 545 -2 280 280 280 280 -828 0 -827 0 2
-277z"/>
<path d="M1051 1696 c2 -3 141 -143 309 -311 l304 -306 146 3 145 3 3 308 2
307 -457 0 c-251 0 -454 -2 -452 -4z"/>
<path d="M4040 1390 l0 -310 148 0 147 0 302 303 c166 166 305 305 309 310 4
4 -198 7 -449 7 l-457 0 0 -310z"/>
</g>
</svg>
